<svg xmlns="http://www.w3.org/2000/svg" viewBox="0 0 2267.7 425.2"><path fill="#C00D0D" d="M1796.7 295.8c151.4-9.9 309.3-4.2 453.7-35.7-50.4-36.1-93.8-61.9-126-96.7 33.5-41.7 96.8-91.3 130.5-132.8-151.4 42.8-303 38.2-451.8 36.4-2.1 76.2-4.2 152.5-6.4 228.8z"/><path fill="#008237" d="M469.1 295.8C317.7 285.9 151 294 15.3 260.1 64 235 115.6 212.4 146 168 112.5 126.3 44.6 72.1 10.8 30.6 161 68.7 306.3 73.3 462.7 66.9c2.1 76.3 4.2 152.6 6.4 228.9z"/><path fill="#8A1002" d="M2061.7 315.2c2.4-61 6.8-119.4 9.2-180.4-19.6-31.1-191.3-29.2-268.6-67.8-19.3-2.3-3.4 122.1-5.1 183.2 88.2 21.1 176.4 42.8 264.5 65z"/><path fill="#005F27" d="M210 315c-2.4-61-12.4-121.8-14.8-182.9.8-27.4 182.1-33.8 266.6-65.1 15.2 0 3.4 122.1 5.1 183.2-88.2 21.2-168.8 42.6-256.9 64.8z"/><linearGradient id="a" gradientUnits="userSpaceOnUse" x1="189.587" y1="251.137" x2="2076.23" y2="251.137"><stop offset="0" stop-color="#009640"/><stop offset=".332" stop-color="#009640"/><stop offset=".332" stop-color="#fff"/><stop offset=".7" stop-color="#fff"/><stop offset=".7" stop-color="#e30613"/><stop offset="1" stop-color="#e30613"/></linearGradient><path fill="url(#a)" d="M191.7 137.4c-5.4 22.6 5.2 62.3 3.9 111.3-1.2 47.1-13.3 99.3.5 121.6 1.2 2 4.3 6.2 8.3 8.4 4.7 2.6 10.4 3.1 12.5 3.3 105.9 9.6 214.4 2.1 323 1.9 197.4-.4 396.9 20.2 597.1 12.6 315-12 597.9-4.6 922-15.7 29.8-3.6 12.7-68.3 8.3-131.5-3.4-49 9.3-97.8 4.2-112.9-1.1-3.3-6.6-9.1-12.8-10.7-35.7-8.9-155.8-13.8-315.7-2.2-122 8.9-262.6.7-390-10.7-80.8-7.2-156.4 6.6-219 5-99.7-2.5-228.2 12.2-355.4 1.1-97.5-8.5-186.1-14.9-274.6-15.1-162-.4-298.2 12.8-306.8 23.5-1.2 1.7-4.6 6.6-5.5 10.1z"/><path d="M1051.4 207.6c0 70.1 73.2 127.1 163.2 127.1s163.2-57 163.2-127.1-73.2-127.1-163.2-127.1c-7 0-13.9.3-20.7 1l7.8 130.9-114.9-83.8c-22.1 21.7-35.4 49.2-35.4 79z"/><path d="M1214.6 54.4c-7.5 0-14.9.3-22.3 1l1.2 20c6.9-.7 13.9-1 21.1-1 93.4 0 169.4 59.8 169.4 133.3 0 73.5-76 133.3-169.4 133.3s-169.4-59.8-169.4-133.3c0-31.2 13.7-59.9 36.6-82.6l-19.1-14c-27.4 26.4-43.8 60-43.8 96.6 0 84.6 87.6 153.2 195.7 153.2s195.7-68.6 195.7-153.2-87.6-153.3-195.7-153.3z"/><path fill="#FFF" d="M1214.6 80.5c90 0 163.2 57 163.2 127.1s-73.2 127.1-163.2 127.1-163.2-57-163.2-127.1c0-29.8 13.3-57.3 35.4-79l-5-3.6c-22.9 22.7-36.6 51.5-36.6 82.6 0 73.5 76 133.3 169.4 133.3S1384 281.1 1384 207.6c0-73.5-76-133.3-169.4-133.3-7.1 0-14.2.4-21.1 1l.4 6.1c6.8-.6 13.7-.9 20.7-.9z"/><path d="M1175.5 47.9c-43.2 4.3-81.2 21.8-107.1 47.1l114.9 83.8-7.8-130.9z"/><path d="M1175.1 41.7l-1.2-20c-52.2 4.6-98.2 25.3-129.6 55.6l19.1 14c26.9-26.7 66.6-45.2 111.7-49.6z"/><path fill="#FFF" d="M1068.4 95c25.9-25.3 63.9-42.8 107.1-47.1l-.4-6.1c-45.1 4.4-84.8 22.9-111.7 49.6l5 3.6z"/><circle fill="#FFF" cx="1241.7" cy="130.1" r="19.4"/><ellipse fill="#FFF" cx="1334.3" cy="195.6" rx="15.7" ry="17.5"/><ellipse fill="#FFF" cx="1274.8" cy="232" rx="19.4" ry="14.8"/><ellipse fill="#FFF" cx="1149.4" cy="75.9" rx="19.4" ry="14.8"/><ellipse fill="#FFF" cx="1270" cy="287.9" rx="14.8" ry="15.7"/><ellipse fill="#FFF" cx="1168.5" cy="291.6" rx="20.3" ry="15.7"/><ellipse fill="#FFF" cx="1204.6" cy="252.4" rx="15.7" ry="16.6"/><ellipse fill="#FFF" cx="1126" cy="243.9" rx="25.1" ry="24"/><ellipse fill="#FFF" cx="1110.6" cy="176.8" rx="19.4" ry="18.5"/><ellipse fill="#FFF" cx="1307.2" cy="141.6" rx="16.6" ry="18.5"/><ellipse fill="#FFF" cx="1325.4" cy="254.7" rx="12.9" ry="13.8"/><ellipse fill="#FFF" cx="1239.2" cy="190.7" rx="12.9" ry="13.8"/><ellipse fill="#FFF" cx="1119.3" cy="105.4" rx="12.9" ry="13.8"/><ellipse fill="#FFF" cx="1160.5" cy="133.4" rx="16.6" ry="19.4"/><g stroke="#000" stroke-width="38.579" stroke-linecap="round" stroke-linejoin="round" stroke-miterlimit="10"><path d="M398.8 321.3c-1 5.4-6.4 9.7-11.5 9.7h-44.8c-5.4 0-8.7-4.4-7.7-9.7l28.7-134.5c1-5.1 6.1-9.5 11.5-9.5h44.8c5.4 0 8.7 4.4 7.7 9.5l-28.7 134.5zm170.4-49c-1-3.1-3.8-5.1-7.7-5.1-5.4 0-10.8 4.6-11.8 10l-7.2 33.3c-2.3 11.3-16.9 20.5-32.3 20.5h-67.1c-15.4 0-25.9-9.2-23.6-20.5l25.1-118.4c1-4.4 5.1-7.7 9.5-7.7H490c4.1 0 6.9 3.3 5.9 7.7l-3.3 16.1h47.9c4.4 0 7.2 3.3 6.1 7.7l-1.3 6.1c-1 4.1-5.1 7.7-9.5 7.7H488l-14.6 68.7c-1.8 8.2 2.6 14.6 9.7 14.6 6.9 0 14.1-6.1 15.9-14.1l7.2-34.6c2.3-10.5 19-16.1 32.8-16.1 14.1.3 26.1 4.9 32 15.9l-1.8 8.2z"/><path d="M707.6 310.8C696.3 322.6 681 331 664.8 331c-9.5 0-20.2-3.6-24.3-8.7-2.8 2-5.6 4.1-6.9 4.9-5.4 2.6-11.5 4.1-17.9 4.1h-31c-15.4 0-25.9-9-23.6-20.5l17.4-82c2.3-11.3 16.9-20.5 32.3-20.5h31c7.7 0 14.1 2.3 18.4 6.1l7.2-6.1h35.9c4.4 0 6.9 3.6 6.1 7.7L692 298c-1.3 5.4 2.3 9.7 7.7 9.7 3.8 0 7.4-2 9.7-5.1l-1.8 8.2zM643 226.2c-7.2 0-14.1 6.7-15.9 14.6L614.8 299c-1.8 7.9 2.6 14.3 9.7 14.3 6.9 0 14.1-5.9 15.6-13.8l12.6-58.7c1.8-7.9-2.5-14.6-9.7-14.6z"/><path d="M761.6 297.7c-1.3 5.4 2.3 10 7.7 10 3.8 0 7.4-2 9.7-5.1l-1.8 8.2c-11.3 11.8-26.9 19.7-42.8 20.2-15.4 0-29.2-9.2-26.9-20.5L734.2 185c1-4.4 5.1-7.7 9.5-7.7h35.9c4.1 0 6.9 3.3 5.9 7.7l-23.9 112.7z"/><path d="M846.9 310.8c-11.3 11.8-26.9 19.7-42.8 20.2-15.4 0-29.2-9.2-26.9-20.5l20.2-94.8c.8-4.4 4.9-7.7 9.2-7.7h35.9c4.4 0 6.9 3.3 6.1 7.7l-17.4 82c-1.3 5.4 2.3 10 7.7 10 3.8 0 7.4-2 9.7-5.1l-1.7 8.2zm6.7-117.9c-1 4.1-5.1 7.7-9.5 7.7h-35.9c-4.1 0-6.9-3.6-5.9-7.7l1.5-7.7c1-4.4 5.1-7.7 9.2-7.7h36c4.4 0 7.2 3.3 6.1 7.7l-1.5 7.7zm139.9 117.9c-11.3 11.8-26.6 20.2-42.8 20.2-9.5 0-20.2-3.6-24.3-8.7-2.8 2-5.6 4.1-6.9 4.9-5.4 2.6-11.5 4.1-17.9 4.1h-31c-15.4 0-25.9-9-23.6-20.5l17.4-82c2.3-11.3 16.9-20.5 32.3-20.5h31c7.7 0 14.1 2.3 18.4 6.1l7.2-6.1h35.9c4.4 0 6.9 3.6 6.1 7.7l-17.4 82c-1.3 5.4 2.3 9.7 7.7 9.7 3.8 0 7.4-2 9.7-5.1l-1.8 8.2zm-64.6-84.6c-7.2 0-14.1 6.7-15.9 14.6L900.7 299c-1.8 7.9 2.6 14.3 9.7 14.3 6.9 0 14.1-5.9 15.6-13.8l12.6-58.7c1.8-7.9-2.5-14.6-9.7-14.6z"/><path d="M1140 310.8c-11.3 11.8-26.9 19.7-42.8 20.2h-3.3c-15.4 0-25.9-9.2-23.6-20.5l14.9-69.9c1.8-8.2-2.6-14.6-9.7-14.6s-14.1 6.4-15.9 14.6l-17.7 82.8c-.8 4.4-4.9 7.7-9.2 7.7h-35.9c-4.4 0-6.9-3.3-6.1-7.7l23.1-107.6c.8-4.4 4.9-7.7 9.2-7.7h35.9l4.6 5.9c5.9-3.6 13.3-5.9 21-5.9h31c15.6 0 25.9 9.2 23.6 20.5l-14.6 69.2c-1.3 5.4 2.3 10 7.7 10 3.8 0 7.4-2 9.7-5.1l-1.9 8.1zm301.5-63.1c-3.1 14.1-21 25.6-40.2 25.6h-61.2l-10.2 47.9c-1 5.4-6.4 9.7-11.5 9.7h-44.8c-5.4 0-8.7-4.4-7.7-9.7l28.7-134.5c1-5.1 6.1-9.5 11.5-9.5h115.8c19.2 0 32.3 11.5 29.2 25.6l-9.6 44.9zm-67.4-48.1h-18.4l-11.5 54.3h18.4c7.7 0 14.6-3.3 15.6-7.4l8.2-39.2c1.1-4.4-4.6-7.7-12.3-7.7zm126.6 98.1c-1.3 5.4 2.3 10 7.7 10 3.8 0 7.4-2 9.7-5.1l-1.8 8.2c-11.3 11.8-26.9 19.7-42.8 20.2-15.4 0-29.2-9.2-26.9-20.5l26.6-125.5c1-4.4 5.1-7.7 9.5-7.7h35.9c4.1 0 6.9 3.3 5.9 7.7l-23.8 112.7zm162.2 13.1c-11.3 11.8-26.6 20.2-42.8 20.2-9.5 0-20.2-3.6-24.3-8.7-2.8 2-5.6 4.1-6.9 4.9-5.4 2.6-11.5 4.1-17.9 4.1h-31c-15.4 0-25.9-9-23.6-20.5l17.4-82c2.3-11.3 16.9-20.5 32.3-20.5h31c7.7 0 14.1 2.3 18.4 6.1l7.2-6.1h35.9c4.4 0 6.9 3.6 6.1 7.7l-17.4 82c-1.3 5.4 2.3 9.7 7.7 9.7 3.8 0 7.4-2 9.7-5.1l-1.8 8.2zm-64.6-84.6c-7.2 0-14.1 6.7-15.9 14.6l-12.3 58.2c-1.8 7.9 2.6 14.3 9.7 14.3 6.9 0 14.1-5.9 15.6-13.8l12.6-58.7c1.8-7.9-2.5-14.6-9.7-14.6z"/><path d="M1810.2 306.7c-1-3.1-3.8-5.1-7.4-5.1-5.6 0-10.5 3.6-11.8 9-2.3 11.3-16.9 20.5-32.3 20.5h-72.2c-15.4 0-25.9-9.2-23.6-20.5l17.4-81.7c2.3-11.3 16.7-20.5 32-20.5h72.5c15.4 0 25.9 9.2 23.6 20.5l-2.6 11.5c-.8 4.1-5.1 7.7-9.2 7.7h-35.9c-4.4 0-6.9-3.6-6.1-7.7 1.5-7.9-2.8-14.1-9.7-14.1-7.2 0-14.1 6.4-15.9 14.3l-12.3 57.9c-1.8 8.2 2.6 14.6 9.7 14.6 6.9 0 14.1-6.4 15.9-14.3 2.3-11.3 19.5-14.3 34.8-14.3 15.9 0 28.4 2.3 34.8 14.1l-1.7 8.1z"/><path d="M1955.9 306.9c-1-3.1-3.8-5.1-7.7-5.1-5.4 0-10.5 3.6-11.5 9-2.6 11.3-16.9 20.2-32.3 20.2h-72.2c-15.4 0-25.9-9.2-23.6-20.5l17.4-82c2.3-11.3 16.9-20.5 32.3-20.5h72.2c15.4 0 25.9 9.2 23.6 20.5l-5.1 24.3c-2.6 11.3-16.9 20.5-32.3 20.5h-48.9l-5.4 25.1c-1.8 8.2 2.6 14.6 9.7 14.6 6.9 0 14.1-6.1 15.9-14.1 2.3-11.3 19.5-14.3 34.8-14.3 15.9 0 28.4 2.3 34.6 14.1l-1.5 8.2zm-65.3-80.9c-7.2 0-14.1 6.4-15.9 14.6l-3.6 17.4h25.6l3.6-17.4c1.8-8.2-2.5-14.6-9.7-14.6z"/></g><g fill="#FFF" stroke="#FFF" stroke-width="38.579" stroke-linecap="round" stroke-linejoin="round" stroke-miterlimit="10"><path d="M387.9 310.3c-1 5.4-6.4 9.7-11.5 9.7h-44.8c-5.4 0-8.7-4.4-7.7-9.7l28.7-134.5c1-5.1 6.1-9.5 11.5-9.5h44.8c5.4 0 8.7 4.4 7.7 9.5l-28.7 134.5zm170.4-48.9c-1-3.1-3.8-5.1-7.7-5.1-5.4 0-10.8 4.6-11.8 10l-7.2 33.3c-2.3 11.3-16.9 20.5-32.3 20.5h-67.1c-15.4 0-25.9-9.2-23.6-20.5l25.1-118.4c1-4.4 5.1-7.7 9.5-7.7h35.9c4.1 0 6.9 3.3 5.9 7.7l-3.3 16.1h47.9c4.4 0 7.2 3.3 6.1 7.7l-1.3 6.1c-1 4.1-5.1 7.7-9.5 7.7H477l-14.6 68.7c-1.8 8.2 2.6 14.6 9.7 14.6 6.9 0 14.1-6.1 15.9-14.1l7.2-34.6c2.3-10.5 19-16.1 32.8-16.1 14.1.3 26.1 4.9 32 15.9l-1.7 8.2z"/><path d="M696.6 299.8C685.3 311.6 670 320 653.8 320c-9.5 0-20.2-3.6-24.3-8.7-2.8 2-5.6 4.1-6.9 4.9-5.4 2.6-11.5 4.1-17.9 4.1h-31c-15.4 0-25.9-9-23.6-20.5l17.4-82c2.3-11.3 16.9-20.5 32.3-20.5h31c7.7 0 14.1 2.3 18.4 6.1l7.2-6.1h35.9c4.4 0 6.9 3.6 6.1 7.7L681 287c-1.3 5.4 2.3 9.7 7.7 9.7 3.8 0 7.4-2 9.7-5.1l-1.8 8.2zm-64.5-84.5c-7.2 0-14.1 6.7-15.9 14.6L603.9 288c-1.8 7.9 2.6 14.3 9.7 14.3 6.9 0 14.1-5.9 15.6-13.8l12.6-58.7c1.8-7.9-2.6-14.5-9.7-14.5z"/><path d="M750.7 286.8c-1.3 5.4 2.3 10 7.7 10 3.8 0 7.4-2 9.7-5.1l-1.8 8.2c-11.3 11.8-26.9 19.7-42.8 20.2-15.4 0-29.2-9.2-26.9-20.5L723.3 174c1-4.4 5.1-7.7 9.5-7.7h35.9c4.1 0 6.9 3.3 5.9 7.7l-23.9 112.8z"/><path d="M836 299.8c-11.3 11.8-26.9 19.7-42.8 20.2-15.4 0-29.2-9.2-26.9-20.5l20.2-94.8c.8-4.4 4.9-7.7 9.2-7.7h35.9c4.4 0 6.9 3.3 6.1 7.7l-17.4 82c-1.3 5.4 2.3 10 7.7 10 3.8 0 7.4-2 9.7-5.1l-1.7 8.2zm6.6-117.8c-1 4.1-5.1 7.7-9.5 7.7h-35.9c-4.1 0-6.9-3.6-5.9-7.7l1.5-7.7c1-4.4 5.1-7.7 9.2-7.7h36c4.4 0 7.2 3.3 6.1 7.7l-1.5 7.7z"/><path d="M982.5 299.8c-11.3 11.8-26.6 20.2-42.8 20.2-9.5 0-20.2-3.6-24.3-8.7-2.8 2-5.6 4.1-6.9 4.9-5.4 2.6-11.5 4.1-17.9 4.1h-31c-15.4 0-25.9-9-23.6-20.5l17.4-82c2.3-11.3 16.9-20.5 32.3-20.5h31c7.7 0 14.1 2.3 18.4 6.1l7.2-6.1h35.9c4.4 0 6.9 3.6 6.1 7.7l-17.4 82c-1.3 5.4 2.3 9.7 7.7 9.7 3.8 0 7.4-2 9.7-5.1l-1.8 8.2zM918 215.3c-7.2 0-14.1 6.7-15.9 14.6L889.8 288c-1.8 7.9 2.6 14.3 9.7 14.3 6.9 0 14.1-5.9 15.6-13.8l12.6-58.7c1.8-7.9-2.6-14.5-9.7-14.5z"/><path d="M1129.1 299.8c-11.3 11.8-26.9 19.7-42.8 20.2h-3.3c-15.4 0-25.9-9.2-23.6-20.5l14.9-69.9c1.8-8.2-2.6-14.6-9.7-14.6s-14.1 6.4-15.9 14.6l-17.7 82.8c-.8 4.4-4.9 7.7-9.2 7.7h-35.9c-4.4 0-6.9-3.3-6.1-7.7l23.1-107.6c.8-4.4 4.9-7.7 9.2-7.7h35.9l4.6 5.9c5.9-3.6 13.3-5.9 21-5.9h31c15.6 0 25.9 9.2 23.6 20.5l-14.6 69.2c-1.3 5.4 2.3 10 7.7 10 3.8 0 7.4-2 9.7-5.1l-1.9 8.1zm301.5-63c-3.1 14.1-21 25.6-40.2 25.6h-61.2l-10.2 47.9c-1 5.4-6.4 9.7-11.5 9.7h-44.8c-5.4 0-8.7-4.4-7.7-9.7l28.7-134.5c1-5.1 6.1-9.5 11.5-9.5H1411c19.2 0 32.3 11.5 29.2 25.6l-9.6 44.9zm-67.4-48.2h-18.4l-11.5 54.3h18.4c7.7 0 14.6-3.3 15.6-7.4l8.2-39.2c1-4.3-4.6-7.7-12.3-7.7zm126.6 98.2c-1.3 5.4 2.3 10 7.7 10 3.8 0 7.4-2 9.7-5.1l-1.8 8.2c-11.3 11.8-26.9 19.7-42.8 20.2-15.4 0-29.2-9.2-26.9-20.5l26.6-125.5c1-4.4 5.1-7.7 9.5-7.7h35.9c4.1 0 6.9 3.3 5.9 7.7l-23.8 112.7z"/><path d="M1651.9 299.8c-11.3 11.8-26.6 20.2-42.8 20.2-9.5 0-20.2-3.6-24.3-8.7-2.8 2-5.6 4.1-6.9 4.9-5.4 2.6-11.5 4.1-17.9 4.1h-31c-15.4 0-25.9-9-23.6-20.5l17.4-82c2.3-11.3 16.9-20.5 32.3-20.5h31c7.7 0 14.1 2.3 18.4 6.1l7.2-6.1h35.9c4.4 0 6.9 3.6 6.1 7.7l-17.4 82c-1.3 5.4 2.3 9.7 7.7 9.7 3.8 0 7.4-2 9.7-5.1l-1.8 8.2zm-64.5-84.5c-7.2 0-14.1 6.7-15.9 14.6l-12.3 58.2c-1.8 7.9 2.6 14.3 9.7 14.3 6.9 0 14.1-5.9 15.6-13.8l12.6-58.7c1.8-8-2.6-14.6-9.7-14.6z"/><path d="M1799.2 295.7c-1-3.1-3.8-5.1-7.4-5.1-5.6 0-10.5 3.6-11.8 9-2.3 11.3-16.9 20.5-32.3 20.5h-72.2c-15.4 0-25.9-9.2-23.6-20.5l17.4-81.7c2.3-11.3 16.7-20.5 32-20.5h72.5c15.4 0 25.9 9.2 23.6 20.5l-2.6 11.5c-.8 4.1-5.1 7.7-9.2 7.7h-35.9c-4.4 0-6.9-3.6-6.1-7.7 1.5-7.9-2.8-14.1-9.7-14.1-7.2 0-14.1 6.4-15.9 14.3l-12.3 57.9c-1.8 8.2 2.6 14.6 9.7 14.6 6.9 0 14.1-6.4 15.9-14.3 2.3-11.3 19.5-14.3 34.8-14.3 15.9 0 28.4 2.3 34.8 14.1l-1.7 8.1z"/><path d="M1945 296c-1-3.1-3.8-5.1-7.7-5.1-5.4 0-10.5 3.6-11.5 9-2.6 11.3-16.9 20.2-32.3 20.2h-72.2c-15.4 0-25.9-9.2-23.6-20.5l17.4-82c2.3-11.3 16.9-20.5 32.3-20.5h72.2c15.4 0 25.9 9.2 23.6 20.5l-5.1 24.3c-2.6 11.3-16.9 20.5-32.3 20.5h-48.9l-5.4 25.1c-1.8 8.2 2.6 14.6 9.7 14.6 6.9 0 14.1-6.1 15.9-14.1 2.3-11.3 19.5-14.3 34.8-14.3 15.9 0 28.4 2.3 34.6 14.1l-1.5 8.2zm-65.3-81c-7.2 0-14.1 6.4-15.9 14.6l-3.6 17.4h25.6l3.6-17.4c1.8-8.2-2.5-14.6-9.7-14.6z"/></g><path fill="#FFF" d="M1713.7 237.3h65.3v49.3h-65.3z"/><path d="M387.9 310.3c-1 5.4-6.4 9.7-11.5 9.7h-44.8c-5.4 0-8.7-4.4-7.7-9.7l28.7-134.5c1-5.1 6.1-9.5 11.5-9.5h44.8c5.4 0 8.7 4.4 7.7 9.5l-28.7 134.5zm170.4-48.9c-1-3.1-3.8-5.1-7.7-5.1-5.4 0-10.8 4.6-11.8 10l-7.2 33.3c-2.3 11.3-16.9 20.5-32.3 20.5h-67.1c-15.4 0-25.9-9.2-23.6-20.5l25.1-118.4c1-4.4 5.1-7.7 9.5-7.7h35.9c4.1 0 6.9 3.3 5.9 7.7l-3.3 16.1h47.9c4.4 0 7.2 3.3 6.1 7.7l-1.3 6.1c-1 4.1-5.1 7.7-9.5 7.7H477l-14.6 68.7c-1.8 8.2 2.6 14.6 9.7 14.6 6.9 0 14.1-6.1 15.9-14.1l7.2-34.6c2.3-10.5 19-16.1 32.8-16.1 14.1.3 26.1 4.9 32 15.9l-1.7 8.2z"/><path d="M696.6 299.8C685.3 311.6 670 320 653.8 320c-9.5 0-20.2-3.6-24.3-8.7-2.8 2-5.6 4.1-6.9 4.9-5.4 2.6-11.5 4.1-17.9 4.1h-31c-15.4 0-25.9-9-23.6-20.5l17.4-82c2.3-11.3 16.9-20.5 32.3-20.5h31c7.7 0 14.1 2.3 18.4 6.1l7.2-6.1h35.9c4.4 0 6.9 3.6 6.1 7.7L681 287c-1.3 5.4 2.3 9.7 7.7 9.7 3.8 0 7.4-2 9.7-5.1l-1.8 8.2zm-64.5-84.5c-7.2 0-14.1 6.7-15.9 14.6L603.9 288c-1.8 7.9 2.6 14.3 9.7 14.3 6.9 0 14.1-5.9 15.6-13.8l12.6-58.7c1.8-7.9-2.6-14.5-9.7-14.5z"/><path d="M750.7 286.8c-1.3 5.4 2.3 10 7.7 10 3.8 0 7.4-2 9.7-5.1l-1.8 8.2c-11.3 11.8-26.9 19.7-42.8 20.2-15.4 0-29.2-9.2-26.9-20.5L723.3 174c1-4.4 5.1-7.7 9.5-7.7h35.9c4.1 0 6.9 3.3 5.9 7.7l-23.9 112.8z"/><path d="M836 299.8c-11.3 11.8-26.9 19.7-42.8 20.2-15.4 0-29.2-9.2-26.9-20.5l20.2-94.8c.8-4.4 4.9-7.7 9.2-7.7h35.9c4.4 0 6.9 3.3 6.1 7.7l-17.4 82c-1.3 5.4 2.3 10 7.7 10 3.8 0 7.4-2 9.7-5.1l-1.7 8.2zm6.6-117.8c-1 4.1-5.1 7.7-9.5 7.7h-35.9c-4.1 0-6.9-3.6-5.9-7.7l1.5-7.7c1-4.4 5.1-7.7 9.2-7.7h36c4.4 0 7.2 3.3 6.1 7.7l-1.5 7.7z"/><path d="M982.5 299.8c-11.3 11.8-26.6 20.2-42.8 20.2-9.5 0-20.2-3.6-24.3-8.7-2.8 2-5.6 4.1-6.9 4.9-5.4 2.6-11.5 4.1-17.9 4.1h-31c-15.4 0-25.9-9-23.6-20.5l17.4-82c2.3-11.3 16.9-20.5 32.3-20.5h31c7.7 0 14.1 2.3 18.4 6.1l7.2-6.1h35.9c4.4 0 6.9 3.6 6.1 7.7l-17.4 82c-1.3 5.4 2.3 9.7 7.7 9.7 3.8 0 7.4-2 9.7-5.1l-1.8 8.2zM918 215.3c-7.2 0-14.1 6.7-15.9 14.6L889.8 288c-1.8 7.9 2.6 14.3 9.7 14.3 6.9 0 14.1-5.9 15.6-13.8l12.6-58.7c1.8-7.9-2.6-14.5-9.7-14.5z"/><path d="M1129.1 299.8c-11.3 11.8-26.9 19.7-42.8 20.2h-3.3c-15.4 0-25.9-9.2-23.6-20.5l14.9-69.9c1.8-8.2-2.6-14.6-9.7-14.6s-14.1 6.4-15.9 14.6l-17.7 82.8c-.8 4.4-4.9 7.7-9.2 7.7h-35.9c-4.4 0-6.9-3.3-6.1-7.7l23.1-107.6c.8-4.4 4.9-7.7 9.2-7.7h35.9l4.6 5.9c5.9-3.6 13.3-5.9 21-5.9h31c15.6 0 25.9 9.2 23.6 20.5l-14.6 69.2c-1.3 5.4 2.3 10 7.7 10 3.8 0 7.4-2 9.7-5.1l-1.9 8.1zm301.5-63c-3.1 14.1-21 25.6-40.2 25.6h-61.2l-10.2 47.9c-1 5.4-6.4 9.7-11.5 9.7h-44.8c-5.4 0-8.7-4.4-7.7-9.7l28.7-134.5c1-5.1 6.1-9.5 11.5-9.5H1411c19.2 0 32.3 11.5 29.2 25.6l-9.6 44.9zm-67.4-48.2h-18.4l-11.5 54.3h18.4c7.7 0 14.6-3.3 15.6-7.4l8.2-39.2c1-4.3-4.6-7.7-12.3-7.7zm126.6 98.2c-1.3 5.4 2.3 10 7.7 10 3.8 0 7.4-2 9.7-5.1l-1.8 8.2c-11.3 11.8-26.9 19.7-42.8 20.2-15.4 0-29.2-9.2-26.9-20.5l26.6-125.5c1-4.4 5.1-7.7 9.5-7.7h35.9c4.1 0 6.9 3.3 5.9 7.7l-23.8 112.7z"/><path d="M1651.9 299.8c-11.3 11.8-26.6 20.2-42.8 20.2-9.5 0-20.2-3.6-24.3-8.7-2.8 2-5.6 4.1-6.9 4.9-5.4 2.6-11.5 4.1-17.9 4.1h-31c-15.4 0-25.9-9-23.6-20.5l17.4-82c2.3-11.3 16.9-20.5 32.3-20.5h31c7.7 0 14.1 2.3 18.4 6.1l7.2-6.1h35.9c4.4 0 6.9 3.6 6.1 7.7l-17.4 82c-1.3 5.4 2.3 9.7 7.7 9.7 3.8 0 7.4-2 9.7-5.1l-1.8 8.2zm-64.5-84.5c-7.2 0-14.1 6.7-15.9 14.6l-12.3 58.2c-1.8 7.9 2.6 14.3 9.7 14.3 6.9 0 14.1-5.9 15.6-13.8l12.6-58.7c1.8-8-2.6-14.6-9.7-14.6z"/><path d="M1799.2 295.7c-1-3.1-3.8-5.1-7.4-5.1-5.6 0-10.5 3.6-11.8 9-2.3 11.3-16.9 20.5-32.3 20.5h-72.2c-15.4 0-25.9-9.2-23.6-20.5l17.4-81.7c2.3-11.3 16.7-20.5 32-20.5h72.5c15.4 0 25.9 9.2 23.6 20.5l-2.6 11.5c-.8 4.1-5.1 7.7-9.2 7.7h-35.9c-4.4 0-6.9-3.6-6.1-7.7 1.5-7.9-2.8-14.1-9.7-14.1-7.2 0-14.1 6.4-15.9 14.3l-12.3 57.9c-1.8 8.2 2.6 14.6 9.7 14.6 6.9 0 14.1-6.4 15.9-14.3 2.3-11.3 19.5-14.3 34.8-14.3 15.9 0 28.4 2.3 34.8 14.1l-1.7 8.1z"/><path d="M1945 296c-1-3.1-3.8-5.1-7.7-5.1-5.4 0-10.5 3.6-11.5 9-2.6 11.3-16.9 20.2-32.3 20.2h-72.2c-15.4 0-25.9-9.2-23.6-20.5l17.4-82c2.3-11.3 16.9-20.5 32.3-20.5h72.2c15.4 0 25.9 9.2 23.6 20.5l-5.1 24.3c-2.6 11.3-16.9 20.5-32.3 20.5h-48.9l-5.4 25.1c-1.8 8.2 2.6 14.6 9.7 14.6 6.9 0 14.1-6.1 15.9-14.1 2.3-11.3 19.5-14.3 34.8-14.3 15.9 0 28.4 2.3 34.6 14.1l-1.5 8.2zm-65.3-81c-7.2 0-14.1 6.4-15.9 14.6l-3.6 17.4h25.6l3.6-17.4c1.8-8.2-2.5-14.6-9.7-14.6z"/></svg>