<?xml version="1.0" encoding="utf-8"?>
<!-- Generator: Adobe Illustrator 18.1.1, SVG Export Plug-In . SVG Version: 6.00 Build 0)  -->
<svg version="1.1" xmlns="http://www.w3.org/2000/svg" xmlns:xlink="http://www.w3.org/1999/xlink" x="0px" y="0px"
	 viewBox="0 0 2267.7 425.2" enable-background="new 0 0 2267.7 425.2" xml:space="preserve">
<g id="Ebene_5">
	<g>
		<g>
			<g>
				<path fill="#C00D0D" d="M1796.7,295.8c151.4-9.9,309.3-4.2,453.7-35.7c-50.4-36.1-93.8-61.9-126-96.7
					c33.5-41.7,96.8-91.3,130.5-132.8c-151.4,42.8-303,38.2-451.8,36.4C1801,143.2,1798.9,219.5,1796.7,295.8z"/>
				<path fill="#008237" d="M469.1,295.8C317.7,285.9,151,294,15.3,260.1C64,235,115.6,212.4,146,168
					C112.5,126.3,44.6,72.1,10.8,30.6C161,68.7,306.3,73.3,462.7,66.9C464.8,143.2,466.9,219.5,469.1,295.8z"/>
			</g>
			<g>
				<path fill="#8A1002" d="M2061.7,315.2c2.4-61,6.8-119.4,9.2-180.4c-19.6-31.1-191.3-29.2-268.6-67.8
					c-19.3-2.3-3.4,122.1-5.1,183.2C1885.4,271.3,1973.6,293,2061.7,315.2z"/>
				<path fill="#005F27" d="M210,315c-2.4-61-12.4-121.8-14.8-182.9C196,104.7,377.3,98.3,461.8,67c15.2,0,3.4,122.1,5.1,183.2
					C378.7,271.4,298.1,292.8,210,315z"/>
			</g>
			<linearGradient id="SVGID_1_" gradientUnits="userSpaceOnUse" x1="189.5874" y1="251.1371" x2="2076.2297" y2="251.1371">
				<stop  offset="0" style="stop-color:#009640"/>
				<stop  offset="0.3318" style="stop-color:#009640"/>
				<stop  offset="0.3318" style="stop-color:#FFFFFF"/>
				<stop  offset="0.7003" style="stop-color:#FFFFFF"/>
				<stop  offset="0.7003" style="stop-color:#E30613"/>
				<stop  offset="1" style="stop-color:#E30613"/>
			</linearGradient>
			<path fill="url(#SVGID_1_)" d="M191.7,137.4c-5.4,22.6,5.2,62.3,3.9,111.3c-1.2,47.1-13.3,99.3,0.5,121.6c1.2,2,4.3,6.2,8.3,8.4
				c4.7,2.6,10.4,3.1,12.5,3.3c105.9,9.6,214.4,2.1,323,1.9c197.4-0.4,396.9,20.2,597.1,12.6c315-12,597.9-4.6,922-15.7
				c29.8-3.6,12.7-68.3,8.3-131.5c-3.4-49,9.3-97.8,4.2-112.9c-1.1-3.3-6.6-9.1-12.8-10.7c-35.7-8.9-155.8-13.8-315.7-2.2
				c-122,8.9-262.6,0.7-390-10.7c-80.8-7.2-156.4,6.6-219,5c-99.7-2.5-228.2,12.2-355.4,1.1c-97.5-8.5-186.1-14.9-274.6-15.1
				c-162-0.4-298.2,12.8-306.8,23.5C196,129,192.6,133.9,191.7,137.4z"/>
		</g>
	</g>
</g>
<g id="Ebene_6">
	<g>
		<g>
			<path d="M1051.4,207.6c0,70.1,73.2,127.1,163.2,127.1s163.2-57,163.2-127.1c0-70.1-73.2-127.1-163.2-127.1c-7,0-13.9,0.3-20.7,1
				l7.8,130.9l-114.9-83.8C1064.7,150.3,1051.4,177.8,1051.4,207.6z"/>
			<path d="M1214.6,54.4c-7.5,0-14.9,0.3-22.3,1l1.2,20c6.9-0.7,13.9-1,21.1-1c93.4,0,169.4,59.8,169.4,133.3
				c0,73.5-76,133.3-169.4,133.3c-93.4,0-169.4-59.8-169.4-133.3c0-31.2,13.7-59.9,36.6-82.6l-19.1-14c-27.4,26.4-43.8,60-43.8,96.6
				c0,84.6,87.6,153.2,195.7,153.2s195.7-68.6,195.7-153.2S1322.7,54.4,1214.6,54.4z"/>
			<path fill="#FFFFFF" d="M1214.6,80.5c90,0,163.2,57,163.2,127.1c0,70.1-73.2,127.1-163.2,127.1s-163.2-57-163.2-127.1
				c0-29.8,13.3-57.3,35.4-79l-5-3.6c-22.9,22.7-36.6,51.5-36.6,82.6c0,73.5,76,133.3,169.4,133.3c93.4,0,169.4-59.8,169.4-133.3
				c0-73.5-76-133.3-169.4-133.3c-7.1,0-14.2,0.4-21.1,1l0.4,6.1C1200.7,80.8,1207.6,80.5,1214.6,80.5z"/>
			<path d="M1175.5,47.9c-43.2,4.3-81.2,21.8-107.1,47.1l114.9,83.8L1175.5,47.9z"/>
			<path d="M1175.1,41.7l-1.2-20c-52.2,4.6-98.2,25.3-129.6,55.6l19.1,14C1090.3,64.6,1130,46.1,1175.1,41.7z"/>
			<path fill="#FFFFFF" d="M1068.4,95c25.9-25.3,63.9-42.8,107.1-47.1l-0.4-6.1c-45.1,4.4-84.8,22.9-111.7,49.6L1068.4,95z"/>
		</g>
		<g>
			<circle fill="#FFFFFF" cx="1241.7" cy="130.1" r="19.4"/>
		</g>
		<g>
			<ellipse fill="#FFFFFF" cx="1334.3" cy="195.6" rx="15.7" ry="17.5"/>
		</g>
		<g>
			<ellipse fill="#FFFFFF" cx="1274.8" cy="232" rx="19.4" ry="14.8"/>
		</g>
		<g>
			<ellipse fill="#FFFFFF" cx="1149.4" cy="75.9" rx="19.4" ry="14.8"/>
		</g>
		<g>
			<ellipse fill="#FFFFFF" cx="1270" cy="287.9" rx="14.8" ry="15.7"/>
		</g>
		<g>
			<ellipse fill="#FFFFFF" cx="1168.5" cy="291.6" rx="20.3" ry="15.7"/>
		</g>
		<g>
			<ellipse fill="#FFFFFF" cx="1204.6" cy="252.4" rx="15.7" ry="16.6"/>
		</g>
		<g>
			<ellipse fill="#FFFFFF" cx="1126" cy="243.9" rx="25.1" ry="24"/>
		</g>
		<g>
			<ellipse fill="#FFFFFF" cx="1110.6" cy="176.8" rx="19.4" ry="18.5"/>
		</g>
		<g>
			<ellipse fill="#FFFFFF" cx="1307.2" cy="141.6" rx="16.6" ry="18.5"/>
		</g>
		<g>
			<ellipse fill="#FFFFFF" cx="1325.4" cy="254.7" rx="12.9" ry="13.8"/>
		</g>
		<g>
			<ellipse fill="#FFFFFF" cx="1239.2" cy="190.7" rx="12.9" ry="13.8"/>
		</g>
		<g>
			<ellipse fill="#FFFFFF" cx="1119.3" cy="105.4" rx="12.9" ry="13.8"/>
		</g>
		<g>
			<ellipse fill="#FFFFFF" cx="1160.5" cy="133.4" rx="16.6" ry="19.4"/>
		</g>
	</g>
</g>
<g id="Ebene_7">
	<g>
		<g>
			<path stroke="#000000" stroke-width="38.5794" stroke-linecap="round" stroke-linejoin="round" stroke-miterlimit="10" d="
				M398.8,321.3c-1,5.4-6.4,9.7-11.5,9.7h-44.8c-5.4,0-8.7-4.4-7.7-9.7l28.7-134.5c1-5.1,6.1-9.5,11.5-9.5h44.8
				c5.4,0,8.7,4.4,7.7,9.5L398.8,321.3z"/>
			<path stroke="#000000" stroke-width="38.5794" stroke-linecap="round" stroke-linejoin="round" stroke-miterlimit="10" d="
				M569.2,272.3c-1-3.1-3.8-5.1-7.7-5.1c-5.4,0-10.8,4.6-11.8,10l-7.2,33.3c-2.3,11.3-16.9,20.5-32.3,20.5h-67.1
				c-15.4,0-25.9-9.2-23.6-20.5l25.1-118.4c1-4.4,5.1-7.7,9.5-7.7H490c4.1,0,6.9,3.3,5.9,7.7l-3.3,16.1h47.9c4.4,0,7.2,3.3,6.1,7.7
				l-1.3,6.1c-1,4.1-5.1,7.7-9.5,7.7H488l-14.6,68.7c-1.8,8.2,2.6,14.6,9.7,14.6c6.9,0,14.1-6.1,15.9-14.1l7.2-34.6
				c2.3-10.5,19-16.1,32.8-16.1c14.1,0.3,26.1,4.9,32,15.9L569.2,272.3z"/>
			<path stroke="#000000" stroke-width="38.5794" stroke-linecap="round" stroke-linejoin="round" stroke-miterlimit="10" d="
				M707.6,310.8c-11.3,11.8-26.6,20.2-42.8,20.2c-9.5,0-20.2-3.6-24.3-8.7c-2.8,2-5.6,4.1-6.9,4.9c-5.4,2.6-11.5,4.1-17.9,4.1h-31
				c-15.4,0-25.9-9-23.6-20.5l17.4-82c2.3-11.3,16.9-20.5,32.3-20.5h31c7.7,0,14.1,2.3,18.4,6.1l7.2-6.1h35.9c4.4,0,6.9,3.6,6.1,7.7
				l-17.4,82c-1.3,5.4,2.3,9.7,7.7,9.7c3.8,0,7.4-2,9.7-5.1L707.6,310.8z M643,226.2c-7.2,0-14.1,6.7-15.9,14.6L614.8,299
				c-1.8,7.9,2.6,14.3,9.7,14.3c6.9,0,14.1-5.9,15.6-13.8l12.6-58.7C654.5,232.9,650.2,226.2,643,226.2z"/>
			<path stroke="#000000" stroke-width="38.5794" stroke-linecap="round" stroke-linejoin="round" stroke-miterlimit="10" d="
				M761.6,297.7c-1.3,5.4,2.3,10,7.7,10c3.8,0,7.4-2,9.7-5.1l-1.8,8.2c-11.3,11.8-26.9,19.7-42.8,20.2c-15.4,0-29.2-9.2-26.9-20.5
				L734.2,185c1-4.4,5.1-7.7,9.5-7.7h35.9c4.1,0,6.9,3.3,5.9,7.7L761.6,297.7z"/>
			<path stroke="#000000" stroke-width="38.5794" stroke-linecap="round" stroke-linejoin="round" stroke-miterlimit="10" d="
				M846.9,310.8c-11.3,11.8-26.9,19.7-42.8,20.2c-15.4,0-29.2-9.2-26.9-20.5l20.2-94.8c0.8-4.4,4.9-7.7,9.2-7.7h35.9
				c4.4,0,6.9,3.3,6.1,7.7l-17.4,82c-1.3,5.4,2.3,10,7.7,10c3.8,0,7.4-2,9.7-5.1L846.9,310.8z M853.6,192.9c-1,4.1-5.1,7.7-9.5,7.7
				h-35.9c-4.1,0-6.9-3.6-5.9-7.7l1.5-7.7c1-4.4,5.1-7.7,9.2-7.7H849c4.4,0,7.2,3.3,6.1,7.7L853.6,192.9z"/>
			<path stroke="#000000" stroke-width="38.5794" stroke-linecap="round" stroke-linejoin="round" stroke-miterlimit="10" d="
				M993.5,310.8c-11.3,11.8-26.6,20.2-42.8,20.2c-9.5,0-20.2-3.6-24.3-8.7c-2.8,2-5.6,4.1-6.9,4.9c-5.4,2.6-11.5,4.1-17.9,4.1h-31
				c-15.4,0-25.9-9-23.6-20.5l17.4-82c2.3-11.3,16.9-20.5,32.3-20.5h31c7.7,0,14.1,2.3,18.4,6.1l7.2-6.1h35.9c4.4,0,6.9,3.6,6.1,7.7
				l-17.4,82c-1.3,5.4,2.3,9.7,7.7,9.7c3.8,0,7.4-2,9.7-5.1L993.5,310.8z M928.9,226.2c-7.2,0-14.1,6.7-15.9,14.6L900.7,299
				c-1.8,7.9,2.6,14.3,9.7,14.3c6.9,0,14.1-5.9,15.6-13.8l12.6-58.7C940.4,232.9,936.1,226.2,928.9,226.2z"/>
			<path stroke="#000000" stroke-width="38.5794" stroke-linecap="round" stroke-linejoin="round" stroke-miterlimit="10" d="
				M1140,310.8c-11.3,11.8-26.9,19.7-42.8,20.2h-3.3c-15.4,0-25.9-9.2-23.6-20.5l14.9-69.9c1.8-8.2-2.6-14.6-9.7-14.6
				s-14.1,6.4-15.9,14.6l-17.7,82.8c-0.8,4.4-4.9,7.7-9.2,7.7h-35.9c-4.4,0-6.9-3.3-6.1-7.7l23.1-107.6c0.8-4.4,4.9-7.7,9.2-7.7
				h35.9l4.6,5.9c5.9-3.6,13.3-5.9,21-5.9h31c15.6,0,25.9,9.2,23.6,20.5l-14.6,69.2c-1.3,5.4,2.3,10,7.7,10c3.8,0,7.4-2,9.7-5.1
				L1140,310.8z"/>
			<path stroke="#000000" stroke-width="38.5794" stroke-linecap="round" stroke-linejoin="round" stroke-miterlimit="10" d="
				M1441.5,247.7c-3.1,14.1-21,25.6-40.2,25.6h-61.2l-10.2,47.9c-1,5.4-6.4,9.7-11.5,9.7h-44.8c-5.4,0-8.7-4.4-7.7-9.7l28.7-134.5
				c1-5.1,6.1-9.5,11.5-9.5h115.8c19.2,0,32.3,11.5,29.2,25.6L1441.5,247.7z M1374.1,199.6h-18.4l-11.5,54.3h18.4
				c7.7,0,14.6-3.3,15.6-7.4l8.2-39.2C1387.5,202.9,1381.8,199.6,1374.1,199.6z"/>
			<path stroke="#000000" stroke-width="38.5794" stroke-linecap="round" stroke-linejoin="round" stroke-miterlimit="10" d="
				M1500.7,297.7c-1.3,5.4,2.3,10,7.7,10c3.8,0,7.4-2,9.7-5.1l-1.8,8.2c-11.3,11.8-26.9,19.7-42.8,20.2c-15.4,0-29.2-9.2-26.9-20.5
				l26.6-125.5c1-4.4,5.1-7.7,9.5-7.7h35.9c4.1,0,6.9,3.3,5.9,7.7L1500.7,297.7z"/>
			<path stroke="#000000" stroke-width="38.5794" stroke-linecap="round" stroke-linejoin="round" stroke-miterlimit="10" d="
				M1662.9,310.8c-11.3,11.8-26.6,20.2-42.8,20.2c-9.5,0-20.2-3.6-24.3-8.7c-2.8,2-5.6,4.1-6.9,4.9c-5.4,2.6-11.5,4.1-17.9,4.1h-31
				c-15.4,0-25.9-9-23.6-20.5l17.4-82c2.3-11.3,16.9-20.5,32.3-20.5h31c7.7,0,14.1,2.3,18.4,6.1l7.2-6.1h35.9c4.4,0,6.9,3.6,6.1,7.7
				l-17.4,82c-1.3,5.4,2.3,9.7,7.7,9.7c3.8,0,7.4-2,9.7-5.1L1662.9,310.8z M1598.3,226.2c-7.2,0-14.1,6.7-15.9,14.6l-12.3,58.2
				c-1.8,7.9,2.6,14.3,9.7,14.3c6.9,0,14.1-5.9,15.6-13.8l12.6-58.7C1609.8,232.9,1605.5,226.2,1598.3,226.2z"/>
			<path stroke="#000000" stroke-width="38.5794" stroke-linecap="round" stroke-linejoin="round" stroke-miterlimit="10" d="
				M1810.2,306.7c-1-3.1-3.8-5.1-7.4-5.1c-5.6,0-10.5,3.6-11.8,9c-2.3,11.3-16.9,20.5-32.3,20.5h-72.2c-15.4,0-25.9-9.2-23.6-20.5
				l17.4-81.7c2.3-11.3,16.7-20.5,32-20.5h72.5c15.4,0,25.9,9.2,23.6,20.5l-2.6,11.5c-0.8,4.1-5.1,7.7-9.2,7.7h-35.9
				c-4.4,0-6.9-3.6-6.1-7.7c1.5-7.9-2.8-14.1-9.7-14.1c-7.2,0-14.1,6.4-15.9,14.3l-12.3,57.9c-1.8,8.2,2.6,14.6,9.7,14.6
				c6.9,0,14.1-6.4,15.9-14.3c2.3-11.3,19.5-14.3,34.8-14.3c15.9,0,28.4,2.3,34.8,14.1L1810.2,306.7z"/>
			<path stroke="#000000" stroke-width="38.5794" stroke-linecap="round" stroke-linejoin="round" stroke-miterlimit="10" d="
				M1955.9,306.9c-1-3.1-3.8-5.1-7.7-5.1c-5.4,0-10.5,3.6-11.5,9c-2.6,11.3-16.9,20.2-32.3,20.2h-72.2c-15.4,0-25.9-9.2-23.6-20.5
				l17.4-82c2.3-11.3,16.9-20.5,32.3-20.5h72.2c15.4,0,25.9,9.2,23.6,20.5l-5.1,24.3c-2.6,11.3-16.9,20.5-32.3,20.5h-48.9l-5.4,25.1
				c-1.8,8.2,2.6,14.6,9.7,14.6c6.9,0,14.1-6.1,15.9-14.1c2.3-11.3,19.5-14.3,34.8-14.3c15.9,0,28.4,2.3,34.6,14.1L1955.9,306.9z
				 M1890.6,226c-7.2,0-14.1,6.4-15.9,14.6l-3.6,17.4h25.6l3.6-17.4C1902.1,232.4,1897.8,226,1890.6,226z"/>
		</g>
		<g>
			<g>
				
					<path fill="#FFFFFF" stroke="#FFFFFF" stroke-width="38.5794" stroke-linecap="round" stroke-linejoin="round" stroke-miterlimit="10" d="
					M387.9,310.3c-1,5.4-6.4,9.7-11.5,9.7h-44.8c-5.4,0-8.7-4.4-7.7-9.7l28.7-134.5c1-5.1,6.1-9.5,11.5-9.5h44.8
					c5.4,0,8.7,4.4,7.7,9.5L387.9,310.3z"/>
				
					<path fill="#FFFFFF" stroke="#FFFFFF" stroke-width="38.5794" stroke-linecap="round" stroke-linejoin="round" stroke-miterlimit="10" d="
					M558.3,261.4c-1-3.1-3.8-5.1-7.7-5.1c-5.4,0-10.8,4.6-11.8,10l-7.2,33.3c-2.3,11.3-16.9,20.5-32.3,20.5h-67.1
					c-15.4,0-25.9-9.2-23.6-20.5l25.1-118.4c1-4.4,5.1-7.7,9.5-7.7h35.9c4.1,0,6.9,3.3,5.9,7.7l-3.3,16.1h47.9
					c4.4,0,7.2,3.3,6.1,7.7l-1.3,6.1c-1,4.1-5.1,7.7-9.5,7.7h-47.9l-14.6,68.7c-1.8,8.2,2.6,14.6,9.7,14.6c6.9,0,14.1-6.1,15.9-14.1
					l7.2-34.6c2.3-10.5,19-16.1,32.8-16.1c14.1,0.3,26.1,4.9,32,15.9L558.3,261.4z"/>
				
					<path fill="#FFFFFF" stroke="#FFFFFF" stroke-width="38.5794" stroke-linecap="round" stroke-linejoin="round" stroke-miterlimit="10" d="
					M696.6,299.8c-11.3,11.8-26.6,20.2-42.8,20.2c-9.5,0-20.2-3.6-24.3-8.7c-2.8,2-5.6,4.1-6.9,4.9c-5.4,2.6-11.5,4.1-17.9,4.1h-31
					c-15.4,0-25.9-9-23.6-20.5l17.4-82c2.3-11.3,16.9-20.5,32.3-20.5h31c7.7,0,14.1,2.3,18.4,6.1l7.2-6.1h35.9
					c4.4,0,6.9,3.6,6.1,7.7L681,287c-1.3,5.4,2.3,9.7,7.7,9.7c3.8,0,7.4-2,9.7-5.1L696.6,299.8z M632.1,215.3
					c-7.2,0-14.1,6.7-15.9,14.6L603.9,288c-1.8,7.9,2.6,14.3,9.7,14.3c6.9,0,14.1-5.9,15.6-13.8l12.6-58.7
					C643.6,221.9,639.2,215.3,632.1,215.3z"/>
				
					<path fill="#FFFFFF" stroke="#FFFFFF" stroke-width="38.5794" stroke-linecap="round" stroke-linejoin="round" stroke-miterlimit="10" d="
					M750.7,286.8c-1.3,5.4,2.3,10,7.7,10c3.8,0,7.4-2,9.7-5.1l-1.8,8.2c-11.3,11.8-26.9,19.7-42.8,20.2c-15.4,0-29.2-9.2-26.9-20.5
					L723.3,174c1-4.4,5.1-7.7,9.5-7.7h35.9c4.1,0,6.9,3.3,5.9,7.7L750.7,286.8z"/>
				
					<path fill="#FFFFFF" stroke="#FFFFFF" stroke-width="38.5794" stroke-linecap="round" stroke-linejoin="round" stroke-miterlimit="10" d="
					M836,299.8c-11.3,11.8-26.9,19.7-42.8,20.2c-15.4,0-29.2-9.2-26.9-20.5l20.2-94.8c0.8-4.4,4.9-7.7,9.2-7.7h35.9
					c4.4,0,6.9,3.3,6.1,7.7l-17.4,82c-1.3,5.4,2.3,10,7.7,10c3.8,0,7.4-2,9.7-5.1L836,299.8z M842.6,182c-1,4.1-5.1,7.7-9.5,7.7
					h-35.9c-4.1,0-6.9-3.6-5.9-7.7l1.5-7.7c1-4.4,5.1-7.7,9.2-7.7H838c4.4,0,7.2,3.3,6.1,7.7L842.6,182z"/>
				
					<path fill="#FFFFFF" stroke="#FFFFFF" stroke-width="38.5794" stroke-linecap="round" stroke-linejoin="round" stroke-miterlimit="10" d="
					M982.5,299.8c-11.3,11.8-26.6,20.2-42.8,20.2c-9.5,0-20.2-3.6-24.3-8.7c-2.8,2-5.6,4.1-6.9,4.9c-5.4,2.6-11.5,4.1-17.9,4.1h-31
					c-15.4,0-25.9-9-23.6-20.5l17.4-82c2.3-11.3,16.9-20.5,32.3-20.5h31c7.7,0,14.1,2.3,18.4,6.1l7.2-6.1h35.9
					c4.4,0,6.9,3.6,6.1,7.7l-17.4,82c-1.3,5.4,2.3,9.7,7.7,9.7c3.8,0,7.4-2,9.7-5.1L982.5,299.8z M918,215.3
					c-7.2,0-14.1,6.7-15.9,14.6L889.8,288c-1.8,7.9,2.6,14.3,9.7,14.3c6.9,0,14.1-5.9,15.6-13.8l12.6-58.7
					C929.5,221.9,925.1,215.3,918,215.3z"/>
				
					<path fill="#FFFFFF" stroke="#FFFFFF" stroke-width="38.5794" stroke-linecap="round" stroke-linejoin="round" stroke-miterlimit="10" d="
					M1129.1,299.8c-11.3,11.8-26.9,19.7-42.8,20.2h-3.3c-15.4,0-25.9-9.2-23.6-20.5l14.9-69.9c1.8-8.2-2.6-14.6-9.7-14.6
					s-14.1,6.4-15.9,14.6l-17.7,82.8c-0.8,4.4-4.9,7.7-9.2,7.7h-35.9c-4.4,0-6.9-3.3-6.1-7.7l23.1-107.6c0.8-4.4,4.9-7.7,9.2-7.7
					h35.9l4.6,5.9c5.9-3.6,13.3-5.9,21-5.9h31c15.6,0,25.9,9.2,23.6,20.5l-14.6,69.2c-1.3,5.4,2.3,10,7.7,10c3.8,0,7.4-2,9.7-5.1
					L1129.1,299.8z"/>
				
					<path fill="#FFFFFF" stroke="#FFFFFF" stroke-width="38.5794" stroke-linecap="round" stroke-linejoin="round" stroke-miterlimit="10" d="
					M1430.6,236.8c-3.1,14.1-21,25.6-40.2,25.6h-61.2l-10.2,47.9c-1,5.4-6.4,9.7-11.5,9.7h-44.8c-5.4,0-8.7-4.4-7.7-9.7l28.7-134.5
					c1-5.1,6.1-9.5,11.5-9.5h115.8c19.2,0,32.3,11.5,29.2,25.6L1430.6,236.8z M1363.2,188.6h-18.4l-11.5,54.3h18.4
					c7.7,0,14.6-3.3,15.6-7.4l8.2-39.2C1376.5,192,1370.9,188.6,1363.2,188.6z"/>
				
					<path fill="#FFFFFF" stroke="#FFFFFF" stroke-width="38.5794" stroke-linecap="round" stroke-linejoin="round" stroke-miterlimit="10" d="
					M1489.8,286.8c-1.3,5.4,2.3,10,7.7,10c3.8,0,7.4-2,9.7-5.1l-1.8,8.2c-11.3,11.8-26.9,19.7-42.8,20.2c-15.4,0-29.2-9.2-26.9-20.5
					l26.6-125.5c1-4.4,5.1-7.7,9.5-7.7h35.9c4.1,0,6.9,3.3,5.9,7.7L1489.8,286.8z"/>
				
					<path fill="#FFFFFF" stroke="#FFFFFF" stroke-width="38.5794" stroke-linecap="round" stroke-linejoin="round" stroke-miterlimit="10" d="
					M1651.9,299.8c-11.3,11.8-26.6,20.2-42.8,20.2c-9.5,0-20.2-3.6-24.3-8.7c-2.8,2-5.6,4.1-6.9,4.9c-5.4,2.6-11.5,4.1-17.9,4.1h-31
					c-15.4,0-25.9-9-23.6-20.5l17.4-82c2.3-11.3,16.9-20.5,32.3-20.5h31c7.7,0,14.1,2.3,18.4,6.1l7.2-6.1h35.9
					c4.4,0,6.9,3.6,6.1,7.7l-17.4,82c-1.3,5.4,2.3,9.7,7.7,9.7c3.8,0,7.4-2,9.7-5.1L1651.9,299.8z M1587.4,215.3
					c-7.2,0-14.1,6.7-15.9,14.6l-12.3,58.2c-1.8,7.9,2.6,14.3,9.7,14.3c6.9,0,14.1-5.9,15.6-13.8l12.6-58.7
					C1598.9,221.9,1594.5,215.3,1587.4,215.3z"/>
				
					<path fill="#FFFFFF" stroke="#FFFFFF" stroke-width="38.5794" stroke-linecap="round" stroke-linejoin="round" stroke-miterlimit="10" d="
					M1799.2,295.7c-1-3.1-3.8-5.1-7.4-5.1c-5.6,0-10.5,3.6-11.8,9c-2.3,11.3-16.9,20.5-32.3,20.5h-72.2c-15.4,0-25.9-9.2-23.6-20.5
					l17.4-81.7c2.3-11.3,16.7-20.5,32-20.5h72.5c15.4,0,25.9,9.2,23.6,20.5l-2.6,11.5c-0.8,4.1-5.1,7.7-9.2,7.7h-35.9
					c-4.4,0-6.9-3.6-6.1-7.7c1.5-7.9-2.8-14.1-9.7-14.1c-7.2,0-14.1,6.4-15.9,14.3l-12.3,57.9c-1.8,8.2,2.6,14.6,9.7,14.6
					c6.9,0,14.1-6.4,15.9-14.3c2.3-11.3,19.5-14.3,34.8-14.3c15.9,0,28.4,2.3,34.8,14.1L1799.2,295.7z"/>
				
					<path fill="#FFFFFF" stroke="#FFFFFF" stroke-width="38.5794" stroke-linecap="round" stroke-linejoin="round" stroke-miterlimit="10" d="
					M1945,296c-1-3.1-3.8-5.1-7.7-5.1c-5.4,0-10.5,3.6-11.5,9c-2.6,11.3-16.9,20.2-32.3,20.2h-72.2c-15.4,0-25.9-9.2-23.6-20.5
					l17.4-82c2.3-11.3,16.9-20.5,32.3-20.5h72.2c15.4,0,25.9,9.2,23.6,20.5l-5.1,24.3c-2.6,11.3-16.9,20.5-32.3,20.5h-48.9
					l-5.4,25.1c-1.8,8.2,2.6,14.6,9.7,14.6c6.9,0,14.1-6.1,15.9-14.1c2.3-11.3,19.5-14.3,34.8-14.3c15.9,0,28.4,2.3,34.6,14.1
					L1945,296z M1879.7,215c-7.2,0-14.1,6.4-15.9,14.6l-3.6,17.4h25.6l3.6-17.4C1891.2,221.4,1886.9,215,1879.7,215z"/>
			</g>
		</g>
	</g>
	<rect x="1713.7" y="237.3" fill="#FFFFFF" width="65.3" height="49.3"/>
</g>
<g id="Ebene_7_Kopie">
	<g>
		<path d="M387.9,310.3c-1,5.4-6.4,9.7-11.5,9.7h-44.8c-5.4,0-8.7-4.4-7.7-9.7l28.7-134.5c1-5.1,6.1-9.5,11.5-9.5h44.8
			c5.4,0,8.7,4.4,7.7,9.5L387.9,310.3z"/>
		<path d="M558.3,261.4c-1-3.1-3.8-5.1-7.7-5.1c-5.4,0-10.8,4.6-11.8,10l-7.2,33.3c-2.3,11.3-16.9,20.5-32.3,20.5h-67.1
			c-15.4,0-25.9-9.2-23.6-20.5l25.1-118.4c1-4.4,5.1-7.7,9.5-7.7h35.9c4.1,0,6.9,3.3,5.9,7.7l-3.3,16.1h47.9c4.4,0,7.2,3.3,6.1,7.7
			l-1.3,6.1c-1,4.1-5.1,7.7-9.5,7.7h-47.9l-14.6,68.7c-1.8,8.2,2.6,14.6,9.7,14.6c6.9,0,14.1-6.1,15.9-14.1l7.2-34.6
			c2.3-10.5,19-16.1,32.8-16.1c14.1,0.3,26.1,4.9,32,15.9L558.3,261.4z"/>
		<path d="M696.6,299.8c-11.3,11.8-26.6,20.2-42.8,20.2c-9.5,0-20.2-3.6-24.3-8.7c-2.8,2-5.6,4.1-6.9,4.9
			c-5.4,2.6-11.5,4.1-17.9,4.1h-31c-15.4,0-25.9-9-23.6-20.5l17.4-82c2.3-11.3,16.9-20.5,32.3-20.5h31c7.7,0,14.1,2.3,18.4,6.1
			l7.2-6.1h35.9c4.4,0,6.9,3.6,6.1,7.7L681,287c-1.3,5.4,2.3,9.7,7.7,9.7c3.8,0,7.4-2,9.7-5.1L696.6,299.8z M632.1,215.3
			c-7.2,0-14.1,6.7-15.9,14.6L603.9,288c-1.8,7.9,2.6,14.3,9.7,14.3c6.9,0,14.1-5.9,15.6-13.8l12.6-58.7
			C643.6,221.9,639.2,215.3,632.1,215.3z"/>
		<path d="M750.7,286.8c-1.3,5.4,2.3,10,7.7,10c3.8,0,7.4-2,9.7-5.1l-1.8,8.2c-11.3,11.8-26.9,19.7-42.8,20.2
			c-15.4,0-29.2-9.2-26.9-20.5L723.3,174c1-4.4,5.1-7.7,9.5-7.7h35.9c4.1,0,6.9,3.3,5.9,7.7L750.7,286.8z"/>
		<path d="M836,299.8c-11.3,11.8-26.9,19.7-42.8,20.2c-15.4,0-29.2-9.2-26.9-20.5l20.2-94.8c0.8-4.4,4.9-7.7,9.2-7.7h35.9
			c4.4,0,6.9,3.3,6.1,7.7l-17.4,82c-1.3,5.4,2.3,10,7.7,10c3.8,0,7.4-2,9.7-5.1L836,299.8z M842.6,182c-1,4.1-5.1,7.7-9.5,7.7h-35.9
			c-4.1,0-6.9-3.6-5.9-7.7l1.5-7.7c1-4.4,5.1-7.7,9.2-7.7H838c4.4,0,7.2,3.3,6.1,7.7L842.6,182z"/>
		<path d="M982.5,299.8c-11.3,11.8-26.6,20.2-42.8,20.2c-9.5,0-20.2-3.6-24.3-8.7c-2.8,2-5.6,4.1-6.9,4.9
			c-5.4,2.6-11.5,4.1-17.9,4.1h-31c-15.4,0-25.9-9-23.6-20.5l17.4-82c2.3-11.3,16.9-20.5,32.3-20.5h31c7.7,0,14.1,2.3,18.4,6.1
			l7.2-6.1h35.9c4.4,0,6.9,3.6,6.1,7.7l-17.4,82c-1.3,5.4,2.3,9.7,7.7,9.7c3.8,0,7.4-2,9.7-5.1L982.5,299.8z M918,215.3
			c-7.2,0-14.1,6.7-15.9,14.6L889.8,288c-1.8,7.9,2.6,14.3,9.7,14.3c6.9,0,14.1-5.9,15.6-13.8l12.6-58.7
			C929.5,221.9,925.1,215.3,918,215.3z"/>
		<path d="M1129.1,299.8c-11.3,11.8-26.9,19.7-42.8,20.2h-3.3c-15.4,0-25.9-9.2-23.6-20.5l14.9-69.9c1.8-8.2-2.6-14.6-9.7-14.6
			s-14.1,6.4-15.9,14.6l-17.7,82.8c-0.8,4.4-4.9,7.7-9.2,7.7h-35.9c-4.4,0-6.9-3.3-6.1-7.7l23.1-107.6c0.8-4.4,4.9-7.7,9.2-7.7h35.9
			l4.6,5.9c5.9-3.6,13.3-5.9,21-5.9h31c15.6,0,25.9,9.2,23.6,20.5l-14.6,69.2c-1.3,5.4,2.3,10,7.7,10c3.8,0,7.4-2,9.7-5.1
			L1129.1,299.8z"/>
		<path d="M1430.6,236.8c-3.1,14.1-21,25.6-40.2,25.6h-61.2l-10.2,47.9c-1,5.4-6.4,9.7-11.5,9.7h-44.8c-5.4,0-8.7-4.4-7.7-9.7
			l28.7-134.5c1-5.1,6.1-9.5,11.5-9.5h115.8c19.2,0,32.3,11.5,29.2,25.6L1430.6,236.8z M1363.2,188.6h-18.4l-11.5,54.3h18.4
			c7.7,0,14.6-3.3,15.6-7.4l8.2-39.2C1376.5,192,1370.9,188.6,1363.2,188.6z"/>
		<path d="M1489.8,286.8c-1.3,5.4,2.3,10,7.7,10c3.8,0,7.4-2,9.7-5.1l-1.8,8.2c-11.3,11.8-26.9,19.7-42.8,20.2
			c-15.4,0-29.2-9.2-26.9-20.5l26.6-125.5c1-4.4,5.1-7.7,9.5-7.7h35.9c4.1,0,6.9,3.3,5.9,7.7L1489.8,286.8z"/>
		<path d="M1651.9,299.8c-11.3,11.8-26.6,20.2-42.8,20.2c-9.5,0-20.2-3.6-24.3-8.7c-2.8,2-5.6,4.1-6.9,4.9
			c-5.4,2.6-11.5,4.1-17.9,4.1h-31c-15.4,0-25.9-9-23.6-20.5l17.4-82c2.3-11.3,16.9-20.5,32.3-20.5h31c7.7,0,14.1,2.3,18.4,6.1
			l7.2-6.1h35.9c4.4,0,6.9,3.6,6.1,7.7l-17.4,82c-1.3,5.4,2.3,9.7,7.7,9.7c3.8,0,7.4-2,9.7-5.1L1651.9,299.8z M1587.4,215.3
			c-7.2,0-14.1,6.7-15.9,14.6l-12.3,58.2c-1.8,7.9,2.6,14.3,9.7,14.3c6.9,0,14.1-5.9,15.6-13.8l12.6-58.7
			C1598.9,221.9,1594.5,215.3,1587.4,215.3z"/>
		<path d="M1799.2,295.7c-1-3.1-3.8-5.1-7.4-5.1c-5.6,0-10.5,3.6-11.8,9c-2.3,11.3-16.9,20.5-32.3,20.5h-72.2
			c-15.4,0-25.9-9.2-23.6-20.5l17.4-81.7c2.3-11.3,16.7-20.5,32-20.5h72.5c15.4,0,25.9,9.2,23.6,20.5l-2.6,11.5
			c-0.8,4.1-5.1,7.7-9.2,7.7h-35.9c-4.4,0-6.9-3.6-6.1-7.7c1.5-7.9-2.8-14.1-9.7-14.1c-7.2,0-14.1,6.4-15.9,14.3l-12.3,57.9
			c-1.8,8.2,2.6,14.6,9.7,14.6c6.9,0,14.1-6.4,15.9-14.3c2.3-11.3,19.5-14.3,34.8-14.3c15.9,0,28.4,2.3,34.8,14.1L1799.2,295.7z"/>
		<path d="M1945,296c-1-3.1-3.8-5.1-7.7-5.1c-5.4,0-10.5,3.6-11.5,9c-2.6,11.3-16.9,20.2-32.3,20.2h-72.2
			c-15.4,0-25.9-9.2-23.6-20.5l17.4-82c2.3-11.3,16.9-20.5,32.3-20.5h72.2c15.4,0,25.9,9.2,23.6,20.5l-5.1,24.3
			c-2.6,11.3-16.9,20.5-32.3,20.5h-48.9l-5.4,25.1c-1.8,8.2,2.6,14.6,9.7,14.6c6.9,0,14.1-6.1,15.9-14.1
			c2.3-11.3,19.5-14.3,34.8-14.3c15.9,0,28.4,2.3,34.6,14.1L1945,296z M1879.7,215c-7.2,0-14.1,6.4-15.9,14.6l-3.6,17.4h25.6
			l3.6-17.4C1891.2,221.4,1886.9,215,1879.7,215z"/>
	</g>
</g>
</svg>
